<svg width="33" height="22" viewBox="0 0 33 22" fill="none" xmlns="http://www.w3.org/2000/svg">
<g clip-path="url(#clip0_686_2657)">
<path d="M0.960002 12.848C0.874002 12.8524 0.789602 12.8212 0.724002 12.76C0.668002 12.6865 0.642002 12.591 0.652002 12.496V3.52C0.642002 3.42496 0.668002 3.32948 0.724002 3.256C0.790402 3.20056 0.872802 3.17416 0.956002 3.1812H1.844C2.012 3.16272 2.1632 3.29252 2.188 3.476L2.276 3.828C2.5316 3.55652 2.8336 3.34268 3.164 3.1988C3.502 3.04832 3.8632 2.97044 4.228 2.97C4.9552 2.9436 5.6504 3.29956 6.1 3.9292C6.5952 4.67984 6.8412 5.5946 6.796 6.5208C6.8096 7.19312 6.6924 7.8606 6.452 8.4788C6.2536 8.9936 5.9312 9.43932 5.52 9.768C5.1224 10.0663 4.6492 10.2203 4.168 10.208C3.8412 10.2098 3.5164 10.1504 3.208 10.032C2.9244 9.92728 2.6624 9.76272 2.436 9.548V12.5048C2.4448 12.599 2.4208 12.6936 2.368 12.7688C2.2996 12.8269 2.2136 12.8533 2.128 12.8436L0.960002 12.848ZM3.652 8.7296C4.0472 8.76084 4.4296 8.56636 4.664 8.2148C4.9132 7.72288 5.026 7.16144 4.988 6.6C5.0264 6.03328 4.9152 5.46656 4.668 4.9676C4.4328 4.61252 4.0464 4.4176 3.648 4.4528C3.2252 4.45324 2.8108 4.57908 2.448 4.818V8.36C2.808 8.6064 3.224 8.73576 3.648 8.734L3.652 8.7296Z" fill="white"/>
<path d="M8.31592 10.0672C8.17272 10.0967 8.03472 9.99284 8.00792 9.83487C8.00192 9.79967 8.00192 9.7636 8.00792 9.7284V3.51999C7.99792 3.42495 8.02392 3.32947 8.07992 3.25599C8.14632 3.20055 8.22872 3.17415 8.31192 3.18119H9.19592C9.36392 3.16271 9.51512 3.29251 9.53992 3.47599L9.69992 4.19759C9.96272 3.85923 10.2767 3.57323 10.6279 3.35279C10.9143 3.18779 11.2327 3.10199 11.5559 3.10199H11.7279C11.8147 3.09363 11.9015 3.12003 11.9719 3.17679C12.0279 3.25027 12.0539 3.34575 12.0439 3.44079V4.57599C12.0507 4.66751 12.0267 4.75815 11.9759 4.83119C11.9091 4.89279 11.8223 4.92139 11.7359 4.91039H11.5159C11.4251 4.91039 11.3107 4.91039 11.1719 4.91039C10.9407 4.91567 10.7103 4.94515 10.4839 4.99839C10.2479 5.04635 10.0175 5.12159 9.79592 5.22279V9.7328C9.80232 9.82432 9.77832 9.91496 9.72792 9.988C9.66112 10.0496 9.57432 10.0782 9.48792 10.0672H8.31592Z" fill="white"/>
<path d="M13.8159 2.1076C13.5431 2.12256 13.2755 2.0218 13.0679 1.826C12.8751 1.62756 12.7715 1.34596 12.7839 1.056C12.7703 0.764278 12.8739 0.480918 13.0679 0.281597C13.5063 -0.104282 14.1295 -0.104282 14.5679 0.281597C14.7607 0.480038 14.8643 0.761638 14.8519 1.0516C14.8643 1.34156 14.7607 1.62316 14.5679 1.8216C14.3599 2.02004 14.0907 2.12256 13.8159 2.1076ZM13.2279 10.0716C13.0847 10.1011 12.9467 9.99724 12.9199 9.83928C12.9139 9.80408 12.9139 9.768 12.9199 9.7328V3.52C12.9099 3.42496 12.9359 3.32948 12.9919 3.256C13.0583 3.20056 13.1407 3.17416 13.2239 3.1812H14.4039C14.4895 3.17152 14.5755 3.19792 14.6439 3.256C14.6967 3.33124 14.7207 3.42584 14.7119 3.52V9.7328C14.7187 9.82432 14.6947 9.91496 14.6439 9.988C14.5771 10.0496 14.4903 10.0782 14.4039 10.0672L13.2279 10.0716Z" fill="white"/>
<path d="M16.54 10.0672C16.3968 10.0967 16.2588 9.99284 16.232 9.83488C16.226 9.79968 16.226 9.7636 16.232 9.7284V3.52C16.222 3.42496 16.248 3.32948 16.304 3.256C16.3704 3.20056 16.4528 3.17416 16.536 3.1812H17.42C17.588 3.16272 17.7392 3.29252 17.764 3.476L17.864 3.8412C18.228 3.56532 18.6216 3.34092 19.036 3.1724C19.378 3.04128 19.7376 2.97308 20.1 2.97C20.7304 2.9106 21.336 3.25248 21.66 3.85C22.0252 3.57368 22.422 3.35192 22.84 3.19C23.2088 3.05492 23.5952 2.98672 23.984 2.9876C24.4752 2.95504 24.9568 3.146 25.316 3.5156C25.6472 3.91512 25.8176 4.44532 25.788 4.9852V9.7328C25.7944 9.82432 25.7704 9.91496 25.72 9.988C25.6532 10.0496 25.5664 10.0782 25.48 10.0672H24.316C24.1728 10.0967 24.0348 9.99284 24.008 9.83488C24.002 9.79968 24.002 9.7636 24.008 9.7284V5.3988C24.008 4.78588 23.7588 4.4792 23.26 4.4792C22.7952 4.48492 22.3372 4.60548 21.92 4.8312V9.7328C21.9268 9.82432 21.9028 9.91496 21.852 9.988C21.7852 10.0496 21.6984 10.0782 21.612 10.0672H20.436C20.2928 10.0967 20.1548 9.99284 20.128 9.83488C20.122 9.79968 20.122 9.7636 20.128 9.7284V5.3988C20.128 4.78588 19.8788 4.4792 19.38 4.4792C18.9096 4.48228 18.4464 4.60768 18.028 4.8444V9.7284C18.0344 9.81992 18.0104 9.91056 17.96 9.9836C17.8932 10.0452 17.8064 10.0738 17.72 10.0628L16.54 10.0672Z" fill="white"/>
<path d="M30.0681 10.2696C29.2061 10.3316 28.3593 9.999 27.7281 9.35C27.1509 8.62312 26.8625 7.67228 26.9281 6.71C26.8705 5.71252 27.1625 4.72824 27.7441 3.96C28.3501 3.27184 29.1985 2.90708 30.0681 2.9612C30.7113 2.91896 31.3465 3.135 31.8561 3.5684C32.2873 3.9732 32.5249 4.5738 32.5001 5.1964C32.5293 5.8058 32.2649 6.38748 31.8041 6.7276C31.1837 7.11744 30.4729 7.29784 29.7601 7.2468C29.3561 7.25208 28.9529 7.20192 28.5601 7.0972C28.5625 7.58384 28.7409 8.04936 29.0561 8.3908C29.4293 8.68208 29.8837 8.82068 30.3401 8.7824C30.5633 8.7824 30.7865 8.76612 31.0081 8.734C31.3129 8.68208 31.6145 8.61124 31.9121 8.5228H31.9841H32.0441C32.1829 8.5228 32.2521 8.62708 32.2521 8.8352V9.4556C32.2597 9.56076 32.2405 9.66592 32.1961 9.7592C32.1393 9.83268 32.0641 9.88592 31.9801 9.9132C31.3681 10.1609 30.7201 10.2819 30.0681 10.2696ZM29.6681 6.0324C29.9829 6.05748 30.2977 5.98444 30.5761 5.8212C30.7673 5.67732 30.8753 5.43312 30.8601 5.1788C30.8601 4.61252 30.5533 4.3296 29.9401 4.3296C29.1533 4.3296 28.6989 4.86068 28.5761 5.9224C28.9333 5.99764 29.2965 6.0346 29.6601 6.0324H29.6681Z" fill="white"/>
<path d="M29.4243 17.6484C25.9203 20.4908 20.8403 22 16.4683 22C10.6259 22.0343 4.98188 19.6702 0.640277 15.3692C0.312277 15.0436 0.604277 14.5992 1.00028 14.85C5.82348 17.8794 11.2823 19.4704 16.8363 19.4656C20.9807 19.4414 25.0803 18.5187 28.9003 16.7508C29.5083 16.4736 30.0043 17.16 29.4243 17.6484Z" fill="white"/>
<path d="M30.9001 15.84C30.4521 15.2108 27.9401 15.5408 26.8081 15.6904C26.4641 15.7344 26.4081 15.4088 26.7201 15.1712C28.7201 13.6224 32.0121 14.0712 32.3921 14.5904C32.7721 15.1096 32.2921 18.7308 30.3921 20.46C30.1041 20.724 29.8281 20.5832 29.9561 20.2312C30.3841 19.0476 31.3321 16.4516 30.9001 15.84Z" fill="white"/>
</g>
<defs>
<clipPath id="clip0_686_2657">
<rect width="32" height="22" fill="white" transform="translate(0.5)"/>
</clipPath>
</defs>
</svg>
