<svg width="40" height="14" viewBox="0 0 40 14" fill="none" xmlns="http://www.w3.org/2000/svg">
<g clip-path="url(#clip0_686_2652)">
<path d="M8.66937 2.24609C9.2203 1.61854 9.49331 0.813685 9.43126 0C8.58689 0.0771098 7.80745 0.462292 7.25814 1.0739C6.98461 1.36685 6.77496 1.70806 6.64124 2.07792C6.50752 2.44777 6.45236 2.83898 6.47894 3.22907C6.89956 3.23687 7.31635 3.15214 7.69647 2.98156C8.07658 2.81098 8.40963 2.55921 8.66937 2.24609ZM9.37931 3.37733C8.16721 3.31098 7.14559 4.03265 6.56552 4.03265C5.98545 4.03265 5.10235 3.41338 4.14999 3.42976C3.52641 3.44638 2.91835 3.61756 2.3866 3.92618C1.85484 4.23481 1.41801 4.67006 1.11975 5.18846C-0.17892 7.31824 0.77344 10.4908 2.03748 12.2249C2.65219 13.049 3.3881 14.0311 4.36643 13.9992C5.34477 13.9672 5.64779 13.4258 6.76465 13.4258C7.88151 13.4258 8.2105 13.9992 9.18018 13.9787C10.1499 13.9582 10.8252 13.153 11.4312 12.2585C11.8684 11.6475 12.2096 10.9798 12.4442 10.2762C11.862 10.0323 11.3667 9.63442 11.018 9.13041C10.6694 8.6264 10.4821 8.03775 10.4789 7.43538C10.486 6.90089 10.6348 6.37666 10.9116 5.91069C11.1884 5.44472 11.5844 5.05191 12.0632 4.76824C11.759 4.35666 11.3586 4.01694 10.8931 3.77544C10.4277 3.53394 9.90968 3.39715 9.37931 3.37569M17.1107 1.7243V4.06296H19.0847V5.60704H17.1107V11.1404C17.1107 11.9661 17.5003 12.3871 18.3661 12.3871C18.6035 12.383 18.8405 12.3666 19.0761 12.338V13.8943C18.6897 13.9535 18.2986 13.9809 17.9073 13.9762C15.864 13.9762 15.0762 13.2251 15.0762 11.3419V5.64391H13.5264V4.09572H15.0329V1.72594L17.1107 1.7243ZM25.985 13.8911H23.8205L20.1843 4.09572H22.3401L24.8941 11.9661H24.9461L27.5001 4.09572H29.6126L25.985 13.8911ZM35.4913 13.8911H33.6212V9.87724H29.604V8.10953H33.6125V4.09572H35.4826V8.10953H39.4999V9.87724H35.4913V13.8911Z" fill="white"/>
</g>
<defs>
<clipPath id="clip0_686_2652">
<rect width="39" height="14" fill="white" transform="translate(0.5)"/>
</clipPath>
</defs>
</svg>
