<svg width="40" height="12" viewBox="0 0 40 12" fill="none" xmlns="http://www.w3.org/2000/svg">
<g clip-path="url(#clip0_686_2665)">
<path d="M5.86261 10.6629C5.27594 10.7675 4.67894 10.7989 4.06138 10.8825L2.17772 5.27864V11.123C1.59105 11.1857 1.05583 11.2693 0.5 11.3529V0.647064H2.06457L4.20546 6.72149V0.647064H5.86261V10.6629ZM9.10491 4.56768C9.74311 4.56768 10.7209 4.5363 11.3076 4.5363V6.20906C10.5768 6.20906 9.72251 6.20906 9.10491 6.24044V8.72876C10.0725 8.66605 11.04 8.58234 12.0178 8.55096V10.1609L7.458 10.5269V0.647064H12.0178V2.31986H9.10491V4.56768ZM18.1421 2.3199H16.4335V10.0147C15.8777 10.0147 15.3218 10.0147 14.7867 10.0356V2.3199H13.0781V0.647064H18.1422L18.1421 2.3199ZM20.8182 4.4527H23.0724V6.12546H20.8182V9.92066H19.2021V0.647064H23.8032V2.31986H20.8182V4.4527ZM26.4794 8.45692C27.4161 8.47777 28.3629 8.55108 29.2791 8.60326V10.2552C27.8072 10.161 26.3353 10.067 24.8325 10.0356V0.647064H26.4794V8.45692ZM30.6686 10.3702C31.1935 10.4016 31.7494 10.433 32.2846 10.4956V0.647064H30.6686V10.3702ZM39.5 0.647064L37.4105 5.73865L39.5 11.3529C38.8824 11.2693 38.2648 11.1543 37.6472 11.0497L36.4636 7.95513L35.2594 10.7989C34.6623 10.6943 34.0859 10.6629 33.489 10.5792L35.6093 5.67586L33.6948 0.647064H35.4651L36.5459 3.45946L37.6987 0.647064L39.5 0.647064Z" fill="white"/>
</g>
<defs>
<clipPath id="clip0_686_2665">
<rect width="39" height="10.7059" fill="white" transform="translate(0.5 0.647064)"/>
</clipPath>
</defs>
</svg>
