<svg width="119" height="152" viewBox="0 0 119 152" fill="none" xmlns="http://www.w3.org/2000/svg">
<g filter="url(#filter0_dddiiiii_195_3238)">
<path d="M46 59.1445C46 51.6887 52.0442 45.6445 59.5 45.6445C66.9558 45.6445 73 51.6887 73 59.1445V92.1445C73 99.6004 66.9558 105.645 59.5 105.645C52.0442 105.645 46 99.6004 46 92.1445V59.1445Z" fill="#333333" fill-opacity="0.6"/>
<path d="M59.5 46.2441C66.6245 46.2441 72.4004 52.0201 72.4004 59.1445V92.1445C72.4004 99.269 66.6245 105.045 59.5 105.045C52.3755 105.045 46.5996 99.269 46.5996 92.1445V59.1445C46.5996 52.0201 52.3755 46.2441 59.5 46.2441Z" stroke="url(#paint0_linear_195_3238)" stroke-width="1.2"/>
<path d="M59.5 46.2441C66.6245 46.2441 72.4004 52.0201 72.4004 59.1445V92.1445C72.4004 99.269 66.6245 105.045 59.5 105.045C52.3755 105.045 46.5996 99.269 46.5996 92.1445V59.1445C46.5996 52.0201 52.3755 46.2441 59.5 46.2441Z" stroke="black" stroke-opacity="0.2" stroke-width="1.2"/>
<path d="M53.9082 74.6746L63.1336 65.5463C63.3936 65.289 63.7461 65.1445 64.1138 65.1445C64.4814 65.1445 64.834 65.289 65.094 65.5463C65.354 65.8035 65.5 66.1524 65.5 66.5162C65.5 66.8799 65.354 67.2288 65.094 67.4861L56.8476 75.6434L65.0917 83.803C65.2204 83.9304 65.3225 84.0816 65.3922 84.248C65.4618 84.4144 65.4977 84.5928 65.4977 84.7729C65.4977 84.953 65.4618 85.1314 65.3922 85.2978C65.3225 85.4642 65.2204 85.6154 65.0917 85.7428C64.963 85.8702 64.8101 85.9712 64.642 86.0401C64.4738 86.1091 64.2935 86.1445 64.1115 86.1445C63.9294 86.1445 63.7492 86.1091 63.581 86.0401C63.4128 85.9712 63.26 85.8702 63.1313 85.7428L53.9059 76.6144C53.777 76.4871 53.6748 76.3358 53.6052 76.1693C53.5355 76.0028 53.4998 75.8243 53.5 75.6441C53.5002 75.4638 53.5364 75.2854 53.6064 75.1191C53.6765 74.9527 53.779 74.8017 53.9082 74.6746Z" fill="white"/>
</g>
<defs>
<filter id="filter0_dddiiiii_195_3238" x="0.5" y="0.144531" width="118" height="151" filterUnits="userSpaceOnUse" color-interpolation-filters="sRGB">
<feFlood flood-opacity="0" result="BackgroundImageFix"/>
<feColorMatrix in="SourceAlpha" type="matrix" values="0 0 0 0 0 0 0 0 0 0 0 0 0 0 0 0 0 0 127 0" result="hardAlpha"/>
<feMorphology radius="3" operator="erode" in="SourceAlpha" result="effect1_dropShadow_195_3238"/>
<feOffset dy="3"/>
<feGaussianBlur stdDeviation="6"/>
<feColorMatrix type="matrix" values="0 0 0 0 0 0 0 0 0 0 0 0 0 0 0 0 0 0 0.153 0"/>
<feBlend mode="normal" in2="BackgroundImageFix" result="effect1_dropShadow_195_3238"/>
<feColorMatrix in="SourceAlpha" type="matrix" values="0 0 0 0 0 0 0 0 0 0 0 0 0 0 0 0 0 0 127 0" result="hardAlpha"/>
<feMorphology radius="6" operator="erode" in="SourceAlpha" result="effect2_dropShadow_195_3238"/>
<feOffset dy="10.24"/>
<feGaussianBlur stdDeviation="14.2"/>
<feColorMatrix type="matrix" values="0 0 0 0 0 0 0 0 0 0 0 0 0 0 0 0 0 0 0.254 0"/>
<feBlend mode="normal" in2="effect1_dropShadow_195_3238" result="effect2_dropShadow_195_3238"/>
<feColorMatrix in="SourceAlpha" type="matrix" values="0 0 0 0 0 0 0 0 0 0 0 0 0 0 0 0 0 0 127 0" result="hardAlpha"/>
<feOffset/>
<feGaussianBlur stdDeviation="22.75"/>
<feColorMatrix type="matrix" values="0 0 0 0 1 0 0 0 0 1 0 0 0 0 1 0 0 0 0.0594 0"/>
<feBlend mode="normal" in2="effect2_dropShadow_195_3238" result="effect3_dropShadow_195_3238"/>
<feBlend mode="normal" in="SourceGraphic" in2="effect3_dropShadow_195_3238" result="shape"/>
<feColorMatrix in="SourceAlpha" type="matrix" values="0 0 0 0 0 0 0 0 0 0 0 0 0 0 0 0 0 0 127 0" result="hardAlpha"/>
<feOffset/>
<feGaussianBlur stdDeviation="0.7825"/>
<feComposite in2="hardAlpha" operator="arithmetic" k2="-1" k3="1"/>
<feColorMatrix type="matrix" values="0 0 0 0 0.95 0 0 0 0 0.95 0 0 0 0 1 0 0 0 0.0568 0"/>
<feBlend mode="overlay" in2="shape" result="effect4_innerShadow_195_3238"/>
<feColorMatrix in="SourceAlpha" type="matrix" values="0 0 0 0 0 0 0 0 0 0 0 0 0 0 0 0 0 0 127 0" result="hardAlpha"/>
<feOffset dx="0.096"/>
<feGaussianBlur stdDeviation="0.75"/>
<feComposite in2="hardAlpha" operator="arithmetic" k2="-1" k3="1"/>
<feColorMatrix type="matrix" values="0 0 0 0 1 0 0 0 0 0.15 0 0 0 0 0.25 0 0 0 0.012 0"/>
<feBlend mode="normal" in2="effect4_innerShadow_195_3238" result="effect5_innerShadow_195_3238"/>
<feColorMatrix in="SourceAlpha" type="matrix" values="0 0 0 0 0 0 0 0 0 0 0 0 0 0 0 0 0 0 127 0" result="hardAlpha"/>
<feOffset dx="-0.096"/>
<feGaussianBlur stdDeviation="0.75"/>
<feComposite in2="hardAlpha" operator="arithmetic" k2="-1" k3="1"/>
<feColorMatrix type="matrix" values="0 0 0 0 0.15 0 0 0 0 0.45 0 0 0 0 1 0 0 0 0.0144 0"/>
<feBlend mode="normal" in2="effect5_innerShadow_195_3238" result="effect6_innerShadow_195_3238"/>
<feColorMatrix in="SourceAlpha" type="matrix" values="0 0 0 0 0 0 0 0 0 0 0 0 0 0 0 0 0 0 127 0" result="hardAlpha"/>
<feOffset dy="1.5"/>
<feGaussianBlur stdDeviation="1.995"/>
<feComposite in2="hardAlpha" operator="arithmetic" k2="-1" k3="1"/>
<feColorMatrix type="matrix" values="0 0 0 0 1 0 0 0 0 1 0 0 0 0 1 0 0 0 0.297 0"/>
<feBlend mode="normal" in2="effect6_innerShadow_195_3238" result="effect7_innerShadow_195_3238"/>
<feColorMatrix in="SourceAlpha" type="matrix" values="0 0 0 0 0 0 0 0 0 0 0 0 0 0 0 0 0 0 127 0" result="hardAlpha"/>
<feOffset dx="0.2" dy="0.32"/>
<feGaussianBlur stdDeviation="4.32"/>
<feComposite in2="hardAlpha" operator="arithmetic" k2="-1" k3="1"/>
<feColorMatrix type="matrix" values="0 0 0 0 0.82 0 0 0 0 0.9 0 0 0 0 1 0 0 0 0.04 0"/>
<feBlend mode="normal" in2="effect7_innerShadow_195_3238" result="effect8_innerShadow_195_3238"/>
</filter>
<linearGradient id="paint0_linear_195_3238" x1="46" y1="75.6445" x2="46" y2="15.6445" gradientUnits="userSpaceOnUse">
<stop stop-color="white" stop-opacity="0.297"/>
<stop offset="0.18" stop-color="white" stop-opacity="0.132"/>
<stop offset="0.5" stop-color="white" stop-opacity="0"/>
<stop offset="0.82" stop-color="white" stop-opacity="0.1155"/>
<stop offset="1" stop-color="white" stop-opacity="0.264"/>
</linearGradient>
</defs>
</svg>
