<svg width="181" height="65" viewBox="0 0 181 65" fill="none" xmlns="http://www.w3.org/2000/svg">
<path d="M169.667 55.3571C164.617 59.7893 157.85 62.5 150.415 62.5H48.3333M128.333 2.5H151.042C166.482 2.5 179 16.142 179 32.9689C179 37.38 178.14 41.572 176.593 45.3571M38.5817 62.5H31.3318C15.6851 62.5 3 49.068 3 32.5C3 15.932 15.6851 2.5 31.3318 2.5H112.333" stroke="white" stroke-width="3" stroke-miterlimit="10" stroke-linecap="round" stroke-linejoin="round"/>
<path d="M49 32C49.0007 32.2612 48.9216 32.5181 48.7703 32.7457C48.6189 32.9733 48.4005 33.1639 48.1364 33.299L31.7636 41.7736C31.4876 41.9166 31.1714 41.9947 30.8478 41.9997C30.5242 42.0048 30.2048 41.9367 29.9227 41.8024C29.6433 41.6702 29.4105 41.4775 29.2484 41.2439C29.0862 41.0104 29.0005 40.7445 29 40.4736V23.5264C29.0005 23.2555 29.0862 22.9896 29.2484 22.7561C29.4105 22.5225 29.6433 22.3298 29.9227 22.1976C30.2048 22.0633 30.5242 21.9952 30.8478 22.0003C31.1714 22.0053 31.4876 22.0834 31.7636 22.2264L48.1364 30.701C48.4005 30.8361 48.6189 31.0267 48.7703 31.2543C48.9216 31.4819 49.0007 31.7388 49 32Z" fill="white"/>
<path d="M55.6331 40.5V24.108H61.8011C63.1611 24.108 64.2891 24.3 65.1851 24.684C66.0811 25.052 66.7531 25.652 67.2011 26.484C67.6651 27.316 67.8971 28.428 67.8971 29.82C67.8971 31.212 67.6651 32.348 67.2011 33.228C66.7531 34.092 66.0811 34.732 65.1851 35.148C64.2891 35.548 63.1611 35.748 61.8011 35.748H58.9451V40.5H55.6331ZM58.9451 33.036H61.7051C62.7131 33.036 63.4331 32.772 63.8651 32.244C64.2971 31.7 64.5131 30.9 64.5131 29.844C64.5131 28.756 64.2971 27.98 63.8651 27.516C63.4331 27.052 62.7131 26.82 61.7051 26.82H58.9451V33.036ZM69.9277 40.5V23.532H73.1197V40.5H69.9277ZM78.9992 40.764C77.7512 40.764 76.8072 40.452 76.1672 39.828C75.5432 39.188 75.2312 38.228 75.2312 36.948C75.2312 36.052 75.3912 35.356 75.7112 34.86C76.0312 34.348 76.5032 33.98 77.1272 33.756C77.7672 33.516 78.5432 33.372 79.4552 33.324L82.3832 33.06V32.34C82.3832 31.764 82.2392 31.364 81.9512 31.14C81.6632 30.9 81.2392 30.78 80.6792 30.78C80.2312 30.78 79.7112 30.796 79.1192 30.828C78.5432 30.86 77.9672 30.9 77.3912 30.948C76.8312 30.996 76.3432 31.044 75.9272 31.092L75.8312 28.836C76.2472 28.74 76.7432 28.644 77.3192 28.548C77.9112 28.436 78.5272 28.348 79.1672 28.284C79.8072 28.22 80.3992 28.188 80.9432 28.188C81.9672 28.188 82.8232 28.316 83.5112 28.572C84.1992 28.828 84.7192 29.252 85.0712 29.844C85.4232 30.42 85.5992 31.204 85.5992 32.196V37.692C85.6312 37.916 85.7512 38.092 85.9592 38.22C86.1672 38.332 86.4072 38.412 86.6792 38.46L86.6072 40.668C86.3512 40.668 86.0952 40.668 85.8392 40.668C85.5992 40.684 85.3672 40.684 85.1432 40.668C84.9192 40.668 84.7192 40.652 84.5432 40.62C84.1752 40.572 83.8552 40.476 83.5832 40.332C83.3272 40.188 83.1192 40.036 82.9592 39.876C82.7032 39.988 82.3592 40.116 81.9272 40.26C81.4952 40.404 81.0232 40.524 80.5112 40.62C80.0152 40.716 79.5112 40.764 78.9992 40.764ZM79.7672 38.388C80.0712 38.388 80.3912 38.356 80.7272 38.292C81.0632 38.228 81.3752 38.156 81.6632 38.076C81.9672 37.98 82.2072 37.892 82.3832 37.812V35.052L79.9352 35.268C79.4072 35.316 79.0232 35.476 78.7832 35.748C78.5592 36.004 78.4472 36.372 78.4472 36.852C78.4472 37.332 78.5512 37.708 78.7592 37.98C78.9832 38.252 79.3192 38.388 79.7672 38.388ZM91.065 45.564L92.601 40.5H90.033L87.177 28.452H90.513L92.649 37.788H93.273L95.409 28.452H98.625L94.473 45.564H91.065ZM105.719 40.5V24.108H110.039L115.295 35.628H115.727V24.108H119.039V40.5H114.767L109.463 28.788H109.031V40.5H105.719ZM126.93 40.764C125.57 40.764 124.474 40.54 123.642 40.092C122.826 39.644 122.234 38.956 121.866 38.028C121.498 37.084 121.314 35.868 121.314 34.38C121.314 32.94 121.506 31.772 121.89 30.876C122.274 29.964 122.882 29.292 123.714 28.86C124.546 28.412 125.618 28.188 126.93 28.188C128.258 28.188 129.33 28.412 130.146 28.86C130.978 29.292 131.586 29.964 131.97 30.876C132.37 31.772 132.57 32.94 132.57 34.38C132.57 35.868 132.386 37.084 132.018 38.028C131.65 38.956 131.05 39.644 130.218 40.092C129.402 40.54 128.306 40.764 126.93 40.764ZM126.93 38.124C127.602 38.124 128.106 38.004 128.442 37.764C128.778 37.508 129.002 37.108 129.114 36.564C129.242 36.004 129.306 35.276 129.306 34.38C129.306 33.5 129.234 32.804 129.09 32.292C128.946 31.764 128.706 31.388 128.37 31.164C128.034 30.94 127.554 30.828 126.93 30.828C126.322 30.828 125.842 30.94 125.49 31.164C125.154 31.388 124.914 31.764 124.77 32.292C124.626 32.804 124.554 33.5 124.554 34.38C124.554 35.276 124.61 36.004 124.722 36.564C124.85 37.108 125.082 37.508 125.418 37.764C125.754 38.004 126.258 38.124 126.93 38.124ZM136.149 40.5L133.845 28.452H137.253L138.813 37.788H139.173L141.117 28.716H144.189L146.205 37.788H146.565L148.125 28.452H151.317L149.085 40.5H144.261L142.557 32.748L140.853 40.5H136.149Z" fill="white"/>
</svg>
