<svg width="1440" height="351" viewBox="0 0 1440 351" fill="none" xmlns="http://www.w3.org/2000/svg">
<mask id="mask0_672_4823" style="mask-type:alpha" maskUnits="userSpaceOnUse" x="0" y="0" width="1440" height="351">
<rect width="1440" height="351" fill="#D9D9D9"/>
</mask>
<g mask="url(#mask0_672_4823)">
<g filter="url(#filter0_i_672_4823)">
<ellipse cx="726" cy="303.5" rx="1133" ry="236" fill="url(#paint0_linear_672_4823)"/>
</g>
<path d="M726 68C1038.85 68 1322.06 94.4136 1527.05 137.112C1629.55 158.463 1712.46 183.879 1769.74 212.087C1798.38 226.191 1820.59 240.981 1835.62 256.288C1850.66 271.594 1858.5 287.382 1858.5 303.5C1858.5 319.618 1850.66 335.406 1835.62 350.712C1820.59 366.019 1798.38 380.809 1769.74 394.913C1712.46 423.121 1629.55 448.537 1527.05 469.888C1322.06 512.586 1038.85 539 726 539C413.154 539 129.94 512.586 -75.0498 469.888C-177.549 448.537 -260.464 423.121 -317.742 394.913C-346.382 380.809 -368.587 366.019 -383.625 350.712C-398.661 335.406 -406.5 319.618 -406.5 303.5C-406.5 287.382 -398.661 271.594 -383.625 256.288C-368.587 240.981 -346.382 226.191 -317.742 212.087C-260.464 183.879 -177.549 158.463 -75.0498 137.112C129.94 94.4136 413.154 68 726 68Z" stroke="url(#paint1_linear_672_4823)"/>
</g>
<defs>
<filter id="filter0_i_672_4823" x="-407" y="67.5" width="2266" height="476" filterUnits="userSpaceOnUse" color-interpolation-filters="sRGB">
<feFlood flood-opacity="0" result="BackgroundImageFix"/>
<feBlend mode="normal" in="SourceGraphic" in2="BackgroundImageFix" result="shape"/>
<feColorMatrix in="SourceAlpha" type="matrix" values="0 0 0 0 0 0 0 0 0 0 0 0 0 0 0 0 0 0 127 0" result="hardAlpha"/>
<feOffset dy="4"/>
<feGaussianBlur stdDeviation="2"/>
<feComposite in2="hardAlpha" operator="arithmetic" k2="-1" k3="1"/>
<feColorMatrix type="matrix" values="0 0 0 0 0.308155 0 0 0 0 0.384329 0 0 0 0 0.634615 0 0 0 0.25 0"/>
<feBlend mode="normal" in2="shape" result="effect1_innerShadow_672_4823"/>
</filter>
<linearGradient id="paint0_linear_672_4823" x1="726" y1="67.5" x2="726" y2="539.5" gradientUnits="userSpaceOnUse">
<stop stop-color="#0B02FF" stop-opacity="0.4"/>
<stop offset="0.1875" stop-opacity="0"/>
</linearGradient>
<linearGradient id="paint1_linear_672_4823" x1="726" y1="67.5" x2="726" y2="229.622" gradientUnits="userSpaceOnUse">
<stop stop-color="#6D28D9"/>
<stop offset="1" stop-opacity="0.2"/>
</linearGradient>
</defs>
</svg>
