<svg width="1440" height="3858" viewBox="0 0 1440 3858" fill="none" xmlns="http://www.w3.org/2000/svg">
<g clip-path="url(#clip0_672_13243)">
<rect width="1440" height="3858" fill="#0A0C0F"/>
<path opacity="0.25" d="M686.825 1675.13C686.825 1846.99 606.77 2004.98 467.266 2108.6C421.144 2142.85 356.083 2132.75 322.237 2086.12C309.085 2067.94 302.07 2046.51 302.07 2024.03C302.07 1990.75 317.853 1959.14 344.421 1939.38C430.175 1875.71 479.278 1779.28 479.278 1675.05C479.278 1492.38 332.409 1343.8 151.781 1343.8C-28.8469 1343.8 -175.717 1492.38 -175.717 1675.05C-175.717 1799.57 -110.042 1916.81 -4.29558 1981L414.656 2235.06C582.481 2336.93 686.649 2523.01 686.649 2720.87C686.649 3019.27 446.66 3262 151.693 3262C-143.274 3262 -383 3019.36 -383 2720.95C-383 2547.87 -302.77 2389.79 -163.002 2287.13C-116.706 2253.15 -51.7323 2263.6 -18.1495 2310.41C-5.17238 2328.5 1.66688 2349.75 1.66688 2371.97C1.66688 2405.51 -14.3792 2437.3 -41.1226 2456.97C-126.526 2519.68 -175.541 2615.92 -175.541 2720.95C-175.541 2903.62 -28.6716 3052.2 151.956 3052.2C332.584 3052.2 479.454 2903.62 479.454 2720.95C479.454 2596.43 413.779 2479.19 308.033 2415L-110.655 2161.12C-278.657 2059.16 -382.912 1872.99 -382.912 1675.13C-382.912 1376.73 -142.923 1134 152.044 1134C447.011 1134 687 1376.73 687 1675.13L686.825 1675.13Z" fill="url(#paint0_linear_672_13243)"/>
</g>
<defs>
<linearGradient id="paint0_linear_672_13243" x1="-383" y1="3057.38" x2="1159.28" y2="2097.25" gradientUnits="userSpaceOnUse">
<stop stop-color="#2A313C"/>
<stop offset="1" stop-color="#424952" stop-opacity="0"/>
</linearGradient>
<clipPath id="clip0_672_13243">
<rect width="1440" height="3858" fill="white"/>
</clipPath>
</defs>
</svg>
