<svg width="151" height="27" viewBox="0 0 151 27" fill="none" xmlns="http://www.w3.org/2000/svg">
<path d="M7.2452 1.01727C7.73617 1.01727 8.16319 1.35036 8.2849 1.82621L10.9935 12.4894C11.5236 14.6266 11.9259 16.6727 12.3013 18.8306H12.4499C12.8067 16.6272 13.2049 14.6948 13.7103 12.4894L16.3178 1.83449C16.4354 1.3545 16.8644 1.0152 17.3595 1.0152H22.6859C23.4203 1.0152 23.9381 1.73932 23.7008 2.43861L15.9464 25.2484C15.7979 25.6849 15.3895 25.9766 14.9315 25.9766H9.2297C8.76967 25.9766 8.36122 25.6828 8.2127 25.2442L0.557332 2.43447C0.322163 1.73725 0.839947 1.01727 1.57227 1.01727H7.2452Z" fill="white"/>
<path d="M99.3568 24.1725C99.4311 24.6773 99.1217 25.1594 98.6183 25.3125C97.3373 25.7014 95.4477 25.9952 93.3538 25.9952C85.8326 25.9952 81.0137 21.396 81.0137 13.741C81.0137 6.5764 85.8553 1.00482 94.3997 1.00482C95.9015 1.00482 97.461 1.22413 98.7029 1.5655C99.2331 1.71032 99.5487 2.23789 99.4414 2.75926L98.7524 6.13158C98.6328 6.71708 98.0263 7.06259 97.4301 6.91156C96.7246 6.73157 95.8437 6.60123 94.7463 6.60123C90.9196 6.60123 88.5184 9.45219 88.5411 13.4679C88.5411 17.8706 91.26 20.3202 94.8123 20.3202C95.8561 20.3202 96.7494 20.2022 97.5374 19.9995C98.1542 19.8402 98.773 20.2416 98.8638 20.8519L99.3589 24.1725H99.3568Z" fill="white"/>
<path d="M118.941 25.9952C118.429 25.9952 117.992 25.6269 117.905 25.12L117.637 23.5663H117.49C115.976 25.4986 113.664 26.5 110.992 26.5C106.406 26.5 103.539 23.0656 103.539 19.0271C103.539 12.6321 109.212 9.72941 116.915 9.72113V9.33838C116.915 7.84877 116.09 6.1233 112.756 6.12743C110.918 6.12743 109.094 6.59914 107.632 7.2674C107.054 7.53222 106.378 7.19913 106.204 6.58673L105.455 3.92818C105.313 3.42544 105.563 2.89993 106.035 2.67856C107.782 1.85927 110.611 1.00067 114.14 1.00067C122.053 1.00067 124.217 5.93709 124.217 11.4507V20.1609C124.217 21.847 124.281 23.4959 124.43 24.8304C124.5 25.4511 124.007 25.9911 123.384 25.9911H118.943L118.941 25.9952ZM117.129 15.4024C117.129 14.7982 116.622 14.31 116.022 14.3472C113.055 14.5334 110.623 15.543 110.623 18.2719C110.623 20.3781 111.929 21.3174 113.439 21.3174C115.056 21.3174 116.506 20.2602 116.989 18.7168C117.1 18.3464 117.129 17.8975 117.129 17.4713V15.4024Z" fill="white"/>
<path d="M128.368 8.93909C128.368 6.3964 128.295 4.16404 128.213 2.14892C128.188 1.53239 128.675 1.02137 129.283 1.02137H133.624C134.173 1.02137 134.63 1.43929 134.69 1.99169L134.94 4.34404H135.084C136.169 2.60408 138.591 0.5 142.278 0.5C147.251 0.5 150.5 4.05232 150.5 10.9418V25.1614C150.5 25.7614 150.02 26.2476 149.428 26.2476H144.144C143.552 26.2476 143.072 25.7614 143.072 25.1614V11.7238C143.072 8.81289 142.123 6.6426 139.581 6.6426C137.762 6.6426 136.601 7.9336 136.085 9.39632C135.891 9.89286 135.792 10.6666 135.792 11.4507V25.1594C135.792 25.7593 135.311 26.2455 134.719 26.2455H129.436C128.844 26.2455 128.363 25.7593 128.363 25.1594V8.93909H128.368Z" fill="white"/>
<path d="M64.5664 25.9952C60.5293 25.9952 56.8182 24.1063 54.384 20.8147C53.5794 19.7264 53.8167 18.1913 54.9121 17.3927C55.3391 17.0823 55.8424 16.9168 56.3705 16.9168C57.1524 16.9168 57.895 17.2892 58.3591 17.9161C59.8547 19.9395 62.1198 21.0981 64.5684 21.0981C68.8592 21.0981 72.3496 17.6327 72.3496 13.3707C72.3496 9.10876 68.8592 5.64333 64.5684 5.64333C61.6433 5.64333 58.8893 7.19295 57.3813 9.68805L51.4134 19.5733C49.0205 23.5332 44.6492 25.9911 40.0015 25.9911C32.9919 25.9911 27.29 20.3285 27.29 13.3686C27.29 6.40883 32.9898 0.752426 39.9995 0.752426C44.0654 0.752426 47.7786 2.64548 50.1901 5.94332C50.9885 7.03571 50.743 8.56877 49.6435 9.36117C49.2185 9.66737 48.7193 9.82874 48.1974 9.82874C47.4094 9.82874 46.6626 9.45013 46.2005 8.81911C44.7276 6.80399 42.4667 5.64747 39.9995 5.64747C35.7087 5.64747 32.2183 9.1129 32.2183 13.3749C32.2183 17.6368 35.7087 21.1022 39.9995 21.1022C42.9246 21.1022 45.6786 19.5526 47.1866 17.0575L53.1504 7.17846C55.5454 3.21443 59.9187 0.754495 64.5664 0.754495C71.576 0.754495 77.2779 6.41711 77.2779 13.3769C77.2779 20.3367 71.576 25.9993 64.5664 25.9993V25.9952Z" fill="white"/>
</svg>
