<svg width="1440" height="82" viewBox="0 0 1440 82" fill="none" xmlns="http://www.w3.org/2000/svg">
<g filter="url(#filter0_i_286_16666)">
<ellipse cx="720" cy="172.5" rx="720" ry="172.5" fill="url(#paint0_linear_286_16666)"/>
</g>
<path d="M720 0.500183C918.795 0.500183 1098.75 19.8062 1229 51.0109C1294.13 66.6143 1346.8 85.1857 1383.17 105.79C1419.59 126.417 1439.5 148.979 1439.5 172.5C1439.5 196.021 1419.59 218.583 1383.17 239.21C1346.8 259.815 1294.13 278.386 1229 293.989C1098.75 325.194 918.795 344.5 720 344.5C521.205 344.5 341.246 325.194 211 293.989C145.873 278.386 93.2027 259.815 56.8271 239.21C20.4119 218.583 0.5 196.021 0.5 172.5C0.5 148.979 20.4119 126.417 56.8271 105.79C93.2027 85.1857 145.873 66.6143 211 51.0109C341.246 19.8062 521.205 0.500183 720 0.500183Z" stroke="url(#paint1_linear_286_16666)"/>
<defs>
<filter id="filter0_i_286_16666" x="0" y="0.000183105" width="1440" height="349" filterUnits="userSpaceOnUse" color-interpolation-filters="sRGB">
<feFlood flood-opacity="0" result="BackgroundImageFix"/>
<feBlend mode="normal" in="SourceGraphic" in2="BackgroundImageFix" result="shape"/>
<feColorMatrix in="SourceAlpha" type="matrix" values="0 0 0 0 0 0 0 0 0 0 0 0 0 0 0 0 0 0 127 0" result="hardAlpha"/>
<feOffset dy="4"/>
<feGaussianBlur stdDeviation="2"/>
<feComposite in2="hardAlpha" operator="arithmetic" k2="-1" k3="1"/>
<feColorMatrix type="matrix" values="0 0 0 0 0.308155 0 0 0 0 0.384329 0 0 0 0 0.634615 0 0 0 0.25 0"/>
<feBlend mode="normal" in2="shape" result="effect1_innerShadow_286_16666"/>
</filter>
<linearGradient id="paint0_linear_286_16666" x1="720" y1="0.000183105" x2="720" y2="345" gradientUnits="userSpaceOnUse">
<stop stop-color="#0B02FF" stop-opacity="0.4"/>
<stop offset="0.1875" stop-opacity="0"/>
</linearGradient>
<linearGradient id="paint1_linear_286_16666" x1="720" y1="0.000183105" x2="720" y2="118.5" gradientUnits="userSpaceOnUse">
<stop stop-color="#6D28D9"/>
<stop offset="1" stop-opacity="0.2"/>
</linearGradient>
</defs>
</svg>
