<svg width="21" height="20" viewBox="0 0 21 20" fill="none" xmlns="http://www.w3.org/2000/svg">
<path d="M20.1707 18.0995L15.7786 13.7057C17.0955 11.9897 17.7103 9.83709 17.4983 7.68447C17.2864 5.53186 16.2635 3.54046 14.6372 2.11425C13.0109 0.688038 10.903 -0.0661898 8.74099 0.00456313C6.57902 0.075316 4.52492 0.965752 2.99536 2.49524C1.4658 4.02473 0.57532 6.07874 0.504563 8.24061C0.433807 10.4025 1.18807 12.5103 2.61435 14.1365C4.04062 15.7628 6.03211 16.7856 8.18483 16.9976C10.3375 17.2095 12.4903 16.5947 14.2064 15.2779L18.6021 19.6744C18.7054 19.7776 18.8279 19.8595 18.9628 19.9154C19.0977 19.9712 19.2423 20 19.3883 20C19.5343 20 19.6788 19.9712 19.8137 19.9154C19.9486 19.8595 20.0711 19.7776 20.1744 19.6744C20.2776 19.5712 20.3595 19.4486 20.4154 19.3137C20.4712 19.1789 20.5 19.0343 20.5 18.8883C20.5 18.7423 20.4712 18.5978 20.4154 18.4629C20.3595 18.328 20.2776 18.2055 20.1744 18.1022L20.1707 18.0995ZM2.73829 8.52683C2.73829 7.28306 3.10713 6.06721 3.79816 5.03305C4.4892 3.99888 5.4714 3.19285 6.62055 2.71688C7.76971 2.2409 9.03421 2.11637 10.2541 2.35902C11.4741 2.60167 12.5947 3.2006 13.4742 4.08009C14.3537 4.95957 14.9527 6.0801 15.1953 7.29998C15.438 8.51986 15.3134 9.7843 14.8375 10.9334C14.3615 12.0825 13.5554 13.0647 12.5212 13.7557C11.487 14.4467 10.2711 14.8155 9.02723 14.8155C7.35982 14.8138 5.7612 14.1507 4.58217 12.9717C3.40313 11.7927 2.74 10.1942 2.73829 8.52683Z" fill="white"/>
</svg>
