<svg width="39" height="40" viewBox="0 0 39 40" fill="none" xmlns="http://www.w3.org/2000/svg">
    <path d="M19.5 0.5C29.9934 0.5 38.5 9.00659 38.5 19.5V20.5C38.5 30.9934 29.9934 39.5 19.5 39.5C9.00659 39.5 0.5 30.9934 0.5 20.5V19.5C0.5 9.00659 9.00659 0.5 19.5 0.5Z" fill="#4D4D4D" fillOpacity="0.6"/>
    <path d="M19.5 0.5C29.9934 0.5 38.5 9.00659 38.5 19.5V20.5C38.5 30.9934 29.9934 39.5 19.5 39.5C9.00659 39.5 0.5 30.9934 0.5 20.5V19.5C0.5 9.00659 9.00659 0.5 19.5 0.5Z" stroke="url(#paint0_linear_672_12846)"/>
    <path d="M29.1707 28.0995L24.7786 23.7057C26.0955 21.9897 26.7103 19.8371 26.4983 17.6845C26.2864 15.5319 25.2635 13.5405 23.6372 12.1142C22.0109 10.688 19.903 9.93381 17.741 10.0046C15.579 10.0753 13.5249 10.9658 11.9954 12.4952C10.4658 14.0247 9.57532 16.0787 9.50456 18.2406C9.43381 20.4025 10.1881 22.5103 11.6143 24.1365C13.0406 25.7628 15.0321 26.7856 17.1848 26.9976C19.3375 27.2095 21.4903 26.5947 23.2064 25.2779L27.6021 29.6744C27.7054 29.7776 27.8279 29.8595 27.9628 29.9154C28.0977 29.9712 28.2423 30 28.3883 30C28.5343 30 28.6788 29.9712 28.8137 29.9154C28.9486 29.8595 29.0711 29.7776 29.1744 29.6744C29.2776 29.5712 29.3595 29.4486 29.4154 29.3137C29.4712 29.1789 29.5 29.0343 29.5 28.8883C29.5 28.7423 29.4712 28.5978 29.4154 28.4629C29.3595 28.328 29.2776 28.2055 29.1744 28.1022L29.1707 28.0995ZM11.7383 18.5268C11.7383 17.2831 12.1071 16.0672 12.7982 15.033C13.4892 13.9989 14.4714 13.1929 15.6206 12.7169C16.7697 12.2409 18.0342 12.1164 19.2541 12.359C20.4741 12.6017 21.5947 13.2006 22.4742 14.0801C23.3537 14.9596 23.9527 16.0801 24.1953 17.3C24.438 18.5199 24.3134 19.7843 23.8375 20.9334C23.3615 22.0825 22.5554 23.0647 21.5212 23.7557C20.487 24.4467 19.2711 24.8155 18.0272 24.8155C16.3598 24.8138 14.7612 24.1507 13.5822 22.9717C12.4031 21.7927 11.74 20.1942 11.7383 18.5268Z" fill="white"/>
    <defs>
      <linearGradient id="paint0_linear_672_12846" x1="19.5" y1="40" x2="19.5" y2="0" gradientUnits="userSpaceOnUse">
        <stop stopOpacity="0.2"/>
        <stop offset="1" stopColor="#666666"/>
      </linearGradient>
    </defs>
  </svg>