<svg width="340" height="23" viewBox="0 0 340 23" fill="none" xmlns="http://www.w3.org/2000/svg">
<path d="M1.37206 15.5V14.204L3.18406 12.344C3.52806 11.992 3.82406 11.684 4.07206 11.42C4.32006 11.148 4.50806 10.892 4.63606 10.652C4.77206 10.412 4.84006 10.156 4.84006 9.884C4.84006 9.484 4.72806 9.216 4.50406 9.08C4.28006 8.936 3.92006 8.864 3.42406 8.864C3.22406 8.864 3.00406 8.876 2.76406 8.9C2.52406 8.924 2.29206 8.952 2.06806 8.984C1.85206 9.016 1.66406 9.048 1.50406 9.08L1.42006 7.808C1.59606 7.76 1.81206 7.708 2.06806 7.652C2.33206 7.596 2.61606 7.548 2.92006 7.508C3.23206 7.46 3.53606 7.436 3.83206 7.436C4.69606 7.436 5.35606 7.62 5.81206 7.988C6.26806 8.348 6.49606 8.908 6.49606 9.668C6.49606 10.084 6.43606 10.452 6.31606 10.772C6.20406 11.092 6.02406 11.4 5.77606 11.696C5.53606 11.984 5.21606 12.3 4.81606 12.644L3.23206 14.156H6.60406V15.5H1.37206ZM10.668 15.632C10.156 15.632 9.71203 15.564 9.33603 15.428C8.96003 15.284 8.64803 15.056 8.40003 14.744C8.16003 14.424 7.97603 14.008 7.84803 13.496C7.72803 12.984 7.66803 12.356 7.66803 11.612C7.66803 10.844 7.72803 10.192 7.84803 9.656C7.97603 9.12 8.16403 8.692 8.41203 8.372C8.66003 8.044 8.96803 7.808 9.33603 7.664C9.71203 7.52 10.152 7.448 10.656 7.448C11.176 7.448 11.624 7.52 12 7.664C12.376 7.808 12.684 8.044 12.924 8.372C13.172 8.692 13.352 9.12 13.464 9.656C13.584 10.184 13.644 10.836 13.644 11.612C13.644 12.596 13.536 13.384 13.32 13.976C13.112 14.56 12.788 14.984 12.348 15.248C11.908 15.504 11.348 15.632 10.668 15.632ZM10.668 14.24C10.892 14.24 11.084 14.204 11.244 14.132C11.412 14.052 11.552 13.916 11.664 13.724C11.776 13.532 11.856 13.264 11.904 12.92C11.96 12.576 11.988 12.14 11.988 11.612C11.988 11.052 11.96 10.592 11.904 10.232C11.856 9.872 11.78 9.592 11.676 9.392C11.572 9.184 11.436 9.04 11.268 8.96C11.1 8.872 10.9 8.828 10.668 8.828C10.436 8.828 10.236 8.872 10.068 8.96C9.90003 9.04 9.76003 9.18 9.64803 9.38C9.54403 9.58 9.46403 9.864 9.40803 10.232C9.35203 10.592 9.32403 11.056 9.32403 11.624C9.32403 12.152 9.35203 12.588 9.40803 12.932C9.47203 13.276 9.56003 13.544 9.67203 13.736C9.78403 13.92 9.92003 14.052 10.08 14.132C10.248 14.204 10.444 14.24 10.668 14.24ZM17.396 15.5V9.356L15.524 10.436L14.972 9.248L17.6 7.58H19.028V15.5H17.396ZM23.668 15.632C23.428 15.632 23.16 15.616 22.864 15.584C22.576 15.552 22.292 15.516 22.012 15.476C21.74 15.428 21.504 15.384 21.304 15.344L21.436 14.096C21.604 14.12 21.812 14.148 22.06 14.18C22.316 14.204 22.58 14.224 22.852 14.24C23.124 14.256 23.38 14.264 23.62 14.264C24.188 14.264 24.604 14.1 24.868 13.772C25.14 13.444 25.284 12.948 25.3 12.284C25.132 12.348 24.948 12.408 24.748 12.464C24.556 12.52 24.364 12.564 24.172 12.596C23.988 12.628 23.82 12.644 23.668 12.644C22.804 12.644 22.148 12.44 21.7 12.032C21.26 11.624 21.04 10.984 21.04 10.112C21.04 9.536 21.156 9.052 21.388 8.66C21.628 8.26 21.96 7.96 22.384 7.76C22.816 7.552 23.32 7.448 23.896 7.448C24.592 7.448 25.16 7.612 25.6 7.94C26.048 8.26 26.376 8.724 26.584 9.332C26.792 9.94 26.896 10.672 26.896 11.528C26.896 12.32 26.816 12.98 26.656 13.508C26.504 14.036 26.288 14.456 26.008 14.768C25.728 15.08 25.388 15.304 24.988 15.44C24.596 15.568 24.156 15.632 23.668 15.632ZM23.836 11.312C24.004 11.312 24.18 11.296 24.364 11.264C24.548 11.224 24.724 11.18 24.892 11.132C25.06 11.076 25.2 11.028 25.312 10.988C25.304 10.548 25.256 10.164 25.168 9.836C25.08 9.508 24.932 9.252 24.724 9.068C24.524 8.884 24.248 8.792 23.896 8.792C23.48 8.792 23.156 8.912 22.924 9.152C22.7 9.392 22.588 9.712 22.588 10.112C22.588 10.528 22.692 10.832 22.9 11.024C23.116 11.216 23.428 11.312 23.836 11.312Z" fill="white" fill-opacity="0.75"/>
<ellipse cx="37.5" cy="11.5" rx="3" ry="2.5" fill="#D9D9D9"/>
<path d="M48.6349 15.5V7.304H50.2909V10.724H53.4709V7.304H55.1269V15.5H53.4709V12.116H50.2909V15.5H48.6349ZM56.5428 15.5V9.476H58.1388V15.5H56.5428ZM56.5428 8.516V7.148H58.1508V8.516H56.5428ZM61.6445 15.632C61.3805 15.632 61.0965 15.616 60.7925 15.584C60.4965 15.56 60.2165 15.528 59.9525 15.488C59.6965 15.448 59.4765 15.408 59.2925 15.368L59.3405 14.18C59.5485 14.204 59.7805 14.232 60.0365 14.264C60.3005 14.296 60.5565 14.324 60.8045 14.348C61.0605 14.364 61.2685 14.372 61.4285 14.372C61.6685 14.372 61.8645 14.352 62.0165 14.312C62.1765 14.272 62.2965 14.208 62.3765 14.12C62.4565 14.024 62.4965 13.888 62.4965 13.712C62.4965 13.576 62.4605 13.472 62.3885 13.4C62.3245 13.328 62.1965 13.268 62.0045 13.22C61.8205 13.164 61.5485 13.108 61.1885 13.052C60.7405 12.988 60.3685 12.896 60.0725 12.776C59.7845 12.656 59.5725 12.48 59.4365 12.248C59.3005 12.008 59.2325 11.684 59.2325 11.276C59.2325 10.78 59.3405 10.392 59.5565 10.112C59.7725 9.832 60.0605 9.636 60.4205 9.524C60.7805 9.404 61.1725 9.344 61.5965 9.344C61.8765 9.344 62.1645 9.36 62.4605 9.392C62.7565 9.416 63.0365 9.448 63.3005 9.488C63.5645 9.528 63.7845 9.568 63.9605 9.608L63.9125 10.82C63.7125 10.788 63.4805 10.76 63.2165 10.736C62.9525 10.704 62.6885 10.68 62.4245 10.664C62.1685 10.648 61.9525 10.64 61.7765 10.64C61.5925 10.64 61.4285 10.66 61.2845 10.7C61.1405 10.732 61.0285 10.788 60.9485 10.868C60.8765 10.948 60.8405 11.068 60.8405 11.228C60.8405 11.34 60.8725 11.432 60.9365 11.504C61.0005 11.576 61.1205 11.64 61.2965 11.696C61.4805 11.744 61.7445 11.792 62.0885 11.84C62.5845 11.912 62.9805 12.012 63.2765 12.14C63.5725 12.268 63.7845 12.452 63.9125 12.692C64.0485 12.932 64.1165 13.256 64.1165 13.664C64.1165 14.144 64.0205 14.528 63.8285 14.816C63.6365 15.104 63.3565 15.312 62.9885 15.44C62.6205 15.568 62.1725 15.632 61.6445 15.632ZM67.2798 15.644C66.8398 15.644 66.4838 15.58 66.2118 15.452C65.9398 15.324 65.7438 15.104 65.6238 14.792C65.5118 14.472 65.4558 14.028 65.4558 13.46V10.808H64.7478V9.476H65.4558V7.88H67.0518V9.476H68.5878V10.808H67.0518V13.04C67.0518 13.352 67.0638 13.596 67.0878 13.772C67.1198 13.948 67.1838 14.072 67.2798 14.144C67.3758 14.216 67.5238 14.252 67.7238 14.252C67.7798 14.252 67.8638 14.248 67.9758 14.24C68.0878 14.232 68.1998 14.224 68.3118 14.216C68.4238 14.208 68.5158 14.2 68.5878 14.192L68.6358 15.476C68.5158 15.5 68.3678 15.524 68.1918 15.548C68.0238 15.572 67.8558 15.592 67.6878 15.608C67.5278 15.632 67.3918 15.644 67.2798 15.644ZM72.0723 15.632C71.3923 15.632 70.8443 15.52 70.4283 15.296C70.0203 15.072 69.7243 14.728 69.5403 14.264C69.3563 13.792 69.2643 13.184 69.2643 12.44C69.2643 11.72 69.3603 11.136 69.5523 10.688C69.7443 10.232 70.0483 9.896 70.4643 9.68C70.8803 9.456 71.4163 9.344 72.0723 9.344C72.7363 9.344 73.2723 9.456 73.6803 9.68C74.0963 9.896 74.4003 10.232 74.5923 10.688C74.7923 11.136 74.8923 11.72 74.8923 12.44C74.8923 13.184 74.8003 13.792 74.6163 14.264C74.4323 14.728 74.1323 15.072 73.7163 15.296C73.3083 15.52 72.7603 15.632 72.0723 15.632ZM72.0723 14.312C72.4083 14.312 72.6603 14.252 72.8283 14.132C72.9963 14.004 73.1083 13.804 73.1643 13.532C73.2283 13.252 73.2603 12.888 73.2603 12.44C73.2603 12 73.2243 11.652 73.1523 11.396C73.0803 11.132 72.9603 10.944 72.7923 10.832C72.6243 10.72 72.3843 10.664 72.0723 10.664C71.7683 10.664 71.5283 10.72 71.3523 10.832C71.1843 10.944 71.0643 11.132 70.9923 11.396C70.9203 11.652 70.8843 12 70.8843 12.44C70.8843 12.888 70.9123 13.252 70.9683 13.532C71.0323 13.804 71.1483 14.004 71.3163 14.132C71.4843 14.252 71.7363 14.312 72.0723 14.312ZM75.9842 15.5V9.476H77.5802V10.184C77.7162 10.08 77.8842 9.972 78.0842 9.86C78.2842 9.74 78.5002 9.632 78.7322 9.536C78.9722 9.432 79.2002 9.364 79.4162 9.332V10.88C79.2082 10.912 78.9882 10.968 78.7562 11.048C78.5242 11.12 78.3042 11.2 78.0962 11.288C77.8962 11.376 77.7242 11.456 77.5802 11.528V15.5H75.9842ZM80.2498 15.5V9.476H81.8458V15.5H80.2498ZM80.2498 8.516V7.148H81.8578V8.516H80.2498ZM85.6395 15.632C84.9515 15.632 84.4115 15.528 84.0195 15.32C83.6355 15.104 83.3635 14.76 83.2035 14.288C83.0515 13.816 82.9755 13.196 82.9755 12.428C82.9755 11.668 83.0635 11.064 83.2395 10.616C83.4155 10.16 83.6995 9.836 84.0915 9.644C84.4915 9.444 85.0115 9.344 85.6515 9.344C85.8195 9.344 86.0155 9.356 86.2395 9.38C86.4635 9.404 86.6875 9.436 86.9115 9.476C87.1435 9.508 87.3395 9.54 87.4995 9.572L87.4395 10.856C87.2875 10.84 87.1155 10.828 86.9235 10.82C86.7315 10.804 86.5435 10.792 86.3595 10.784C86.1835 10.768 86.0395 10.76 85.9275 10.76C85.5835 10.76 85.3115 10.816 85.1115 10.928C84.9195 11.032 84.7835 11.208 84.7035 11.456C84.6315 11.696 84.5955 12.02 84.5955 12.428C84.5955 12.868 84.6315 13.22 84.7035 13.484C84.7755 13.748 84.9035 13.936 85.0875 14.048C85.2795 14.16 85.5595 14.216 85.9275 14.216C86.0395 14.216 86.1875 14.212 86.3715 14.204C86.5555 14.188 86.7435 14.172 86.9355 14.156C87.1355 14.14 87.3115 14.128 87.4635 14.12L87.5115 15.404C87.3515 15.436 87.1595 15.468 86.9355 15.5C86.7115 15.54 86.4835 15.572 86.2515 15.596C86.0275 15.62 85.8235 15.632 85.6395 15.632ZM90.1187 15.632C89.4947 15.632 89.0227 15.476 88.7027 15.164C88.3907 14.844 88.2347 14.364 88.2347 13.724C88.2347 13.276 88.3147 12.928 88.4747 12.68C88.6347 12.424 88.8707 12.24 89.1827 12.128C89.5027 12.008 89.8907 11.936 90.3467 11.912L91.8107 11.78V11.42C91.8107 11.132 91.7387 10.932 91.5947 10.82C91.4507 10.7 91.2387 10.64 90.9587 10.64C90.7347 10.64 90.4747 10.648 90.1787 10.664C89.8907 10.68 89.6027 10.7 89.3147 10.724C89.0347 10.748 88.7907 10.772 88.5827 10.796L88.5347 9.668C88.7427 9.62 88.9907 9.572 89.2787 9.524C89.5747 9.468 89.8827 9.424 90.2027 9.392C90.5227 9.36 90.8187 9.344 91.0907 9.344C91.6027 9.344 92.0307 9.408 92.3747 9.536C92.7187 9.664 92.9787 9.876 93.1547 10.172C93.3307 10.46 93.4187 10.852 93.4187 11.348V14.096C93.4347 14.208 93.4947 14.296 93.5987 14.36C93.7027 14.416 93.8227 14.456 93.9587 14.48L93.9227 15.584C93.7947 15.584 93.6667 15.584 93.5387 15.584C93.4187 15.592 93.3027 15.592 93.1907 15.584C93.0787 15.584 92.9787 15.576 92.8907 15.56C92.7067 15.536 92.5467 15.488 92.4107 15.416C92.2827 15.344 92.1787 15.268 92.0987 15.188C91.9707 15.244 91.7987 15.308 91.5827 15.38C91.3667 15.452 91.1307 15.512 90.8747 15.56C90.6267 15.608 90.3747 15.632 90.1187 15.632ZM90.5027 14.444C90.6547 14.444 90.8147 14.428 90.9827 14.396C91.1507 14.364 91.3067 14.328 91.4507 14.288C91.6027 14.24 91.7227 14.196 91.8107 14.156V12.776L90.5867 12.884C90.3227 12.908 90.1307 12.988 90.0107 13.124C89.8987 13.252 89.8427 13.436 89.8427 13.676C89.8427 13.916 89.8947 14.104 89.9987 14.24C90.1107 14.376 90.2787 14.444 90.5027 14.444ZM94.876 15.5V7.016H96.472V15.5H94.876ZM100.549 15.5V7.304H103.681C104.321 7.304 104.857 7.396 105.289 7.58C105.729 7.756 106.081 8.016 106.345 8.36C106.609 8.704 106.797 9.12 106.909 9.608C107.029 10.096 107.089 10.652 107.089 11.276C107.089 11.908 107.033 12.48 106.921 12.992C106.817 13.504 106.637 13.948 106.381 14.324C106.125 14.7 105.781 14.992 105.349 15.2C104.917 15.4 104.377 15.5 103.729 15.5H100.549ZM102.205 14.108H103.633C104.009 14.108 104.313 14.036 104.545 13.892C104.777 13.748 104.953 13.548 105.073 13.292C105.201 13.028 105.285 12.728 105.325 12.392C105.373 12.048 105.397 11.676 105.397 11.276C105.397 10.892 105.373 10.544 105.325 10.232C105.277 9.912 105.189 9.64 105.061 9.416C104.941 9.184 104.765 9.008 104.533 8.888C104.309 8.76 104.009 8.696 103.633 8.696H102.205V14.108ZM108.234 15.5V9.476H109.83V10.184C109.966 10.08 110.134 9.972 110.334 9.86C110.534 9.74 110.75 9.632 110.982 9.536C111.222 9.432 111.45 9.364 111.666 9.332V10.88C111.458 10.912 111.238 10.968 111.006 11.048C110.774 11.12 110.554 11.2 110.346 11.288C110.146 11.376 109.974 11.456 109.83 11.528V15.5H108.234ZM114.072 15.632C113.448 15.632 112.976 15.476 112.656 15.164C112.344 14.844 112.188 14.364 112.188 13.724C112.188 13.276 112.268 12.928 112.428 12.68C112.588 12.424 112.824 12.24 113.136 12.128C113.456 12.008 113.844 11.936 114.3 11.912L115.764 11.78V11.42C115.764 11.132 115.692 10.932 115.548 10.82C115.404 10.7 115.192 10.64 114.912 10.64C114.688 10.64 114.428 10.648 114.132 10.664C113.844 10.68 113.556 10.7 113.268 10.724C112.988 10.748 112.744 10.772 112.536 10.796L112.488 9.668C112.696 9.62 112.944 9.572 113.232 9.524C113.528 9.468 113.836 9.424 114.156 9.392C114.476 9.36 114.772 9.344 115.044 9.344C115.556 9.344 115.984 9.408 116.328 9.536C116.672 9.664 116.932 9.876 117.108 10.172C117.284 10.46 117.372 10.852 117.372 11.348V14.096C117.388 14.208 117.448 14.296 117.552 14.36C117.656 14.416 117.776 14.456 117.912 14.48L117.876 15.584C117.748 15.584 117.62 15.584 117.492 15.584C117.372 15.592 117.256 15.592 117.144 15.584C117.032 15.584 116.932 15.576 116.844 15.56C116.66 15.536 116.5 15.488 116.364 15.416C116.236 15.344 116.132 15.268 116.052 15.188C115.924 15.244 115.752 15.308 115.536 15.38C115.32 15.452 115.084 15.512 114.828 15.56C114.58 15.608 114.328 15.632 114.072 15.632ZM114.456 14.444C114.608 14.444 114.768 14.428 114.936 14.396C115.104 14.364 115.26 14.328 115.404 14.288C115.556 14.24 115.676 14.196 115.764 14.156V12.776L114.54 12.884C114.276 12.908 114.084 12.988 113.964 13.124C113.852 13.252 113.796 13.436 113.796 13.676C113.796 13.916 113.848 14.104 113.952 14.24C114.064 14.376 114.232 14.444 114.456 14.444ZM118.781 15.5V9.476H120.377V9.86C120.497 9.78 120.649 9.704 120.833 9.632C121.017 9.552 121.209 9.484 121.409 9.428C121.617 9.372 121.817 9.344 122.009 9.344C122.377 9.344 122.677 9.396 122.909 9.5C123.141 9.596 123.333 9.74 123.485 9.932C123.629 9.844 123.809 9.756 124.025 9.668C124.241 9.58 124.477 9.504 124.733 9.44C124.989 9.376 125.237 9.344 125.477 9.344C125.917 9.344 126.277 9.404 126.557 9.524C126.845 9.636 127.069 9.816 127.229 10.064C127.389 10.304 127.501 10.616 127.565 11C127.629 11.376 127.661 11.832 127.661 12.368V15.5H126.065V12.512C126.065 12.096 126.041 11.76 125.993 11.504C125.953 11.24 125.865 11.048 125.729 10.928C125.601 10.808 125.405 10.748 125.141 10.748C124.997 10.748 124.845 10.764 124.685 10.796C124.525 10.82 124.377 10.856 124.241 10.904C124.113 10.952 124.009 10.996 123.929 11.036C123.969 11.204 123.997 11.42 124.013 11.684C124.037 11.948 124.049 12.224 124.049 12.512V15.5H122.453V12.536C122.453 12.112 122.429 11.768 122.381 11.504C122.341 11.24 122.253 11.048 122.117 10.928C121.981 10.808 121.785 10.748 121.529 10.748C121.385 10.748 121.237 10.764 121.085 10.796C120.941 10.82 120.805 10.856 120.677 10.904C120.557 10.952 120.457 10.996 120.377 11.036V15.5H118.781ZM130.502 15.632C129.878 15.632 129.406 15.476 129.086 15.164C128.774 14.844 128.618 14.364 128.618 13.724C128.618 13.276 128.698 12.928 128.858 12.68C129.018 12.424 129.254 12.24 129.566 12.128C129.886 12.008 130.274 11.936 130.73 11.912L132.194 11.78V11.42C132.194 11.132 132.122 10.932 131.978 10.82C131.834 10.7 131.622 10.64 131.342 10.64C131.118 10.64 130.858 10.648 130.562 10.664C130.274 10.68 129.986 10.7 129.698 10.724C129.418 10.748 129.174 10.772 128.966 10.796L128.918 9.668C129.126 9.62 129.374 9.572 129.662 9.524C129.958 9.468 130.266 9.424 130.586 9.392C130.906 9.36 131.202 9.344 131.474 9.344C131.986 9.344 132.414 9.408 132.758 9.536C133.102 9.664 133.362 9.876 133.538 10.172C133.714 10.46 133.802 10.852 133.802 11.348V14.096C133.818 14.208 133.878 14.296 133.982 14.36C134.086 14.416 134.206 14.456 134.342 14.48L134.306 15.584C134.178 15.584 134.05 15.584 133.922 15.584C133.802 15.592 133.686 15.592 133.574 15.584C133.462 15.584 133.362 15.576 133.274 15.56C133.09 15.536 132.93 15.488 132.794 15.416C132.666 15.344 132.562 15.268 132.482 15.188C132.354 15.244 132.182 15.308 131.966 15.38C131.75 15.452 131.514 15.512 131.258 15.56C131.01 15.608 130.758 15.632 130.502 15.632ZM130.886 14.444C131.038 14.444 131.198 14.428 131.366 14.396C131.534 14.364 131.69 14.328 131.834 14.288C131.986 14.24 132.106 14.196 132.194 14.156V12.776L130.97 12.884C130.706 12.908 130.514 12.988 130.394 13.124C130.282 13.252 130.226 13.436 130.226 13.676C130.226 13.916 130.278 14.104 130.382 14.24C130.494 14.376 130.662 14.444 130.886 14.444ZM140.62 15.632C139.86 15.632 139.252 15.54 138.796 15.356C138.34 15.172 138.008 14.896 137.8 14.528C137.6 14.16 137.5 13.692 137.5 13.124C137.5 12.66 137.56 12.28 137.68 11.984C137.808 11.68 137.992 11.436 138.232 11.252C138.48 11.06 138.784 10.9 139.144 10.772C138.984 10.572 138.864 10.392 138.784 10.232C138.704 10.064 138.652 9.892 138.628 9.716C138.604 9.532 138.592 9.324 138.592 9.092C138.592 8.7 138.68 8.36 138.856 8.072C139.032 7.784 139.3 7.56 139.66 7.4C140.028 7.24 140.488 7.16 141.04 7.16C141.544 7.16 141.976 7.232 142.336 7.376C142.704 7.512 142.984 7.724 143.176 8.012C143.376 8.3 143.476 8.672 143.476 9.128C143.476 9.408 143.444 9.652 143.38 9.86C143.324 10.068 143.228 10.252 143.092 10.412C142.956 10.572 142.772 10.72 142.54 10.856C142.308 10.992 142.02 11.128 141.676 11.264L143.044 12.596C143.084 12.492 143.12 12.36 143.152 12.2C143.192 12.032 143.228 11.864 143.26 11.696C143.292 11.52 143.316 11.364 143.332 11.228L144.724 11.264C144.684 11.528 144.632 11.8 144.568 12.08C144.504 12.352 144.432 12.612 144.352 12.86C144.28 13.108 144.2 13.328 144.112 13.52L145.36 14.672L144.808 15.632L143.296 14.552C143 14.904 142.628 15.172 142.18 15.356C141.732 15.54 141.212 15.632 140.62 15.632ZM140.668 14.288C140.972 14.288 141.244 14.232 141.484 14.12C141.724 14.008 141.92 13.84 142.072 13.616L140.02 11.66C139.812 11.732 139.64 11.824 139.504 11.936C139.376 12.048 139.28 12.18 139.216 12.332C139.152 12.484 139.12 12.676 139.12 12.908C139.12 13.356 139.24 13.7 139.48 13.94C139.728 14.172 140.124 14.288 140.668 14.288ZM140.824 10.472C141.064 10.36 141.26 10.244 141.412 10.124C141.572 10.004 141.688 9.868 141.76 9.716C141.84 9.564 141.88 9.388 141.88 9.188C141.88 8.884 141.812 8.664 141.676 8.528C141.54 8.384 141.324 8.312 141.028 8.312C140.748 8.312 140.532 8.384 140.38 8.528C140.236 8.672 140.164 8.896 140.164 9.2C140.164 9.312 140.172 9.416 140.188 9.512C140.204 9.608 140.232 9.704 140.272 9.8C140.32 9.888 140.388 9.988 140.476 10.1C140.572 10.204 140.688 10.328 140.824 10.472ZM148.253 15.5L150.341 7.304H153.233L155.309 15.5H153.653L153.197 13.844H150.329L149.897 15.5H148.253ZM150.593 12.512H152.957L152.033 8.648H151.529L150.593 12.512ZM158.495 15.632C157.807 15.632 157.267 15.528 156.875 15.32C156.491 15.104 156.219 14.76 156.059 14.288C155.907 13.816 155.831 13.196 155.831 12.428C155.831 11.668 155.919 11.064 156.095 10.616C156.271 10.16 156.555 9.836 156.947 9.644C157.347 9.444 157.867 9.344 158.507 9.344C158.675 9.344 158.871 9.356 159.095 9.38C159.319 9.404 159.543 9.436 159.767 9.476C159.999 9.508 160.195 9.54 160.355 9.572L160.295 10.856C160.143 10.84 159.971 10.828 159.779 10.82C159.587 10.804 159.399 10.792 159.215 10.784C159.039 10.768 158.895 10.76 158.783 10.76C158.439 10.76 158.167 10.816 157.967 10.928C157.775 11.032 157.639 11.208 157.559 11.456C157.487 11.696 157.451 12.02 157.451 12.428C157.451 12.868 157.487 13.22 157.559 13.484C157.631 13.748 157.759 13.936 157.943 14.048C158.135 14.16 158.415 14.216 158.783 14.216C158.895 14.216 159.043 14.212 159.227 14.204C159.411 14.188 159.599 14.172 159.791 14.156C159.991 14.14 160.167 14.128 160.319 14.12L160.367 15.404C160.207 15.436 160.015 15.468 159.791 15.5C159.567 15.54 159.339 15.572 159.107 15.596C158.883 15.62 158.679 15.632 158.495 15.632ZM163.514 15.644C163.074 15.644 162.718 15.58 162.446 15.452C162.174 15.324 161.978 15.104 161.858 14.792C161.746 14.472 161.69 14.028 161.69 13.46V10.808H160.982V9.476H161.69V7.88H163.286V9.476H164.822V10.808H163.286V13.04C163.286 13.352 163.298 13.596 163.322 13.772C163.354 13.948 163.418 14.072 163.514 14.144C163.61 14.216 163.758 14.252 163.958 14.252C164.014 14.252 164.098 14.248 164.21 14.24C164.322 14.232 164.434 14.224 164.546 14.216C164.658 14.208 164.75 14.2 164.822 14.192L164.87 15.476C164.75 15.5 164.602 15.524 164.426 15.548C164.258 15.572 164.09 15.592 163.922 15.608C163.762 15.632 163.626 15.644 163.514 15.644ZM165.715 15.5V9.476H167.311V15.5H165.715ZM165.715 8.516V7.148H167.323V8.516H165.715ZM171.236 15.632C170.556 15.632 170.008 15.52 169.592 15.296C169.184 15.072 168.888 14.728 168.704 14.264C168.52 13.792 168.428 13.184 168.428 12.44C168.428 11.72 168.524 11.136 168.716 10.688C168.908 10.232 169.212 9.896 169.628 9.68C170.044 9.456 170.58 9.344 171.236 9.344C171.9 9.344 172.436 9.456 172.844 9.68C173.26 9.896 173.564 10.232 173.756 10.688C173.956 11.136 174.056 11.72 174.056 12.44C174.056 13.184 173.964 13.792 173.78 14.264C173.596 14.728 173.296 15.072 172.88 15.296C172.472 15.52 171.924 15.632 171.236 15.632ZM171.236 14.312C171.572 14.312 171.824 14.252 171.992 14.132C172.16 14.004 172.272 13.804 172.328 13.532C172.392 13.252 172.424 12.888 172.424 12.44C172.424 12 172.388 11.652 172.316 11.396C172.244 11.132 172.124 10.944 171.956 10.832C171.788 10.72 171.548 10.664 171.236 10.664C170.932 10.664 170.692 10.72 170.516 10.832C170.348 10.944 170.228 11.132 170.156 11.396C170.084 11.652 170.048 12 170.048 12.44C170.048 12.888 170.076 13.252 170.132 13.532C170.196 13.804 170.312 14.004 170.48 14.132C170.648 14.252 170.9 14.312 171.236 14.312ZM175.148 15.5V9.476H176.744V9.86C176.872 9.78 177.028 9.704 177.212 9.632C177.396 9.552 177.588 9.484 177.788 9.428C177.996 9.372 178.196 9.344 178.388 9.344C178.804 9.344 179.148 9.4 179.42 9.512C179.7 9.616 179.92 9.788 180.08 10.028C180.24 10.268 180.356 10.584 180.428 10.976C180.5 11.36 180.536 11.828 180.536 12.38V15.5H178.928V12.464C178.928 12.048 178.904 11.716 178.856 11.468C178.808 11.212 178.716 11.028 178.58 10.916C178.444 10.804 178.244 10.748 177.98 10.748C177.836 10.748 177.684 10.764 177.524 10.796C177.372 10.82 177.224 10.856 177.08 10.904C176.944 10.952 176.832 11 176.744 11.048V15.5H175.148Z" fill="white" fill-opacity="0.75"/>
<ellipse cx="191.5" cy="11.5" rx="3" ry="2.5" fill="#D9D9D9"/>
<path d="M205.197 15.5V9.356L203.325 10.436L202.773 9.248L205.401 7.58H206.829V15.5H205.197ZM209.129 15.5V7.016H210.725V9.692C210.861 9.644 211.021 9.596 211.205 9.548C211.397 9.492 211.593 9.444 211.793 9.404C212.001 9.364 212.189 9.344 212.357 9.344C212.781 9.344 213.129 9.4 213.401 9.512C213.681 9.616 213.901 9.788 214.061 10.028C214.221 10.26 214.333 10.568 214.397 10.952C214.469 11.336 214.505 11.8 214.505 12.344V15.5H212.897V12.464C212.897 12.048 212.873 11.716 212.825 11.468C212.777 11.212 212.685 11.028 212.549 10.916C212.421 10.804 212.221 10.748 211.949 10.748C211.805 10.748 211.657 10.76 211.505 10.784C211.353 10.808 211.205 10.84 211.061 10.88C210.925 10.92 210.813 10.956 210.725 10.988V15.5H209.129ZM221.099 15.632C220.795 15.632 220.467 15.608 220.115 15.56C219.763 15.52 219.423 15.468 219.095 15.404C218.767 15.34 218.487 15.284 218.255 15.236L218.399 14.012C218.615 14.044 218.871 14.084 219.167 14.132C219.463 14.172 219.767 14.204 220.079 14.228C220.391 14.252 220.675 14.264 220.931 14.264C221.339 14.264 221.663 14.16 221.903 13.952C222.143 13.736 222.263 13.424 222.263 13.016C222.263 12.736 222.211 12.516 222.107 12.356C222.011 12.196 221.867 12.084 221.675 12.02C221.491 11.948 221.275 11.912 221.027 11.912C220.835 11.912 220.643 11.932 220.451 11.972C220.259 12.004 220.079 12.048 219.911 12.104C219.743 12.152 219.607 12.204 219.503 12.26L218.423 12.092L218.615 7.58H223.571V9.032H219.911L219.755 10.796C219.867 10.748 220.007 10.7 220.175 10.652C220.343 10.596 220.523 10.548 220.715 10.508C220.915 10.468 221.107 10.448 221.291 10.448C221.843 10.448 222.311 10.524 222.695 10.676C223.079 10.828 223.371 11.08 223.571 11.432C223.779 11.784 223.883 12.264 223.883 12.872C223.883 13.504 223.767 14.024 223.535 14.432C223.311 14.832 222.991 15.132 222.575 15.332C222.167 15.532 221.675 15.632 221.099 15.632ZM227.383 15.632C227.143 15.632 226.875 15.616 226.579 15.584C226.291 15.552 226.007 15.516 225.727 15.476C225.455 15.428 225.219 15.384 225.019 15.344L225.151 14.096C225.319 14.12 225.527 14.148 225.775 14.18C226.031 14.204 226.295 14.224 226.567 14.24C226.839 14.256 227.095 14.264 227.335 14.264C227.903 14.264 228.319 14.1 228.583 13.772C228.855 13.444 228.999 12.948 229.015 12.284C228.847 12.348 228.663 12.408 228.463 12.464C228.271 12.52 228.079 12.564 227.887 12.596C227.703 12.628 227.535 12.644 227.383 12.644C226.519 12.644 225.863 12.44 225.415 12.032C224.975 11.624 224.755 10.984 224.755 10.112C224.755 9.536 224.871 9.052 225.103 8.66C225.343 8.26 225.675 7.96 226.099 7.76C226.531 7.552 227.035 7.448 227.611 7.448C228.307 7.448 228.875 7.612 229.315 7.94C229.763 8.26 230.091 8.724 230.299 9.332C230.507 9.94 230.611 10.672 230.611 11.528C230.611 12.32 230.531 12.98 230.371 13.508C230.219 14.036 230.003 14.456 229.723 14.768C229.443 15.08 229.103 15.304 228.703 15.44C228.311 15.568 227.871 15.632 227.383 15.632ZM227.551 11.312C227.719 11.312 227.895 11.296 228.079 11.264C228.263 11.224 228.439 11.18 228.607 11.132C228.775 11.076 228.915 11.028 229.027 10.988C229.019 10.548 228.971 10.164 228.883 9.836C228.795 9.508 228.647 9.252 228.439 9.068C228.239 8.884 227.963 8.792 227.611 8.792C227.195 8.792 226.871 8.912 226.639 9.152C226.415 9.392 226.303 9.712 226.303 10.112C226.303 10.528 226.407 10.832 226.615 11.024C226.831 11.216 227.143 11.312 227.551 11.312ZM231.711 15.5V9.476H233.307V9.86C233.427 9.78 233.579 9.704 233.763 9.632C233.947 9.552 234.139 9.484 234.339 9.428C234.547 9.372 234.747 9.344 234.939 9.344C235.307 9.344 235.607 9.396 235.839 9.5C236.071 9.596 236.263 9.74 236.415 9.932C236.559 9.844 236.739 9.756 236.955 9.668C237.171 9.58 237.407 9.504 237.663 9.44C237.919 9.376 238.167 9.344 238.407 9.344C238.847 9.344 239.207 9.404 239.487 9.524C239.775 9.636 239.999 9.816 240.159 10.064C240.319 10.304 240.431 10.616 240.495 11C240.559 11.376 240.591 11.832 240.591 12.368V15.5H238.995V12.512C238.995 12.096 238.971 11.76 238.923 11.504C238.883 11.24 238.795 11.048 238.659 10.928C238.531 10.808 238.335 10.748 238.071 10.748C237.927 10.748 237.775 10.764 237.615 10.796C237.455 10.82 237.307 10.856 237.171 10.904C237.043 10.952 236.939 10.996 236.859 11.036C236.899 11.204 236.927 11.42 236.943 11.684C236.967 11.948 236.979 12.224 236.979 12.512V15.5H235.383V12.536C235.383 12.112 235.359 11.768 235.311 11.504C235.271 11.24 235.183 11.048 235.047 10.928C234.911 10.808 234.715 10.748 234.459 10.748C234.315 10.748 234.167 10.764 234.015 10.796C233.871 10.82 233.735 10.856 233.607 10.904C233.487 10.952 233.387 10.996 233.307 11.036V15.5H231.711Z" fill="white" fill-opacity="0.75"/>
<circle cx="251" cy="11.5" r="2.5" fill="#D9D9D9"/>
<path d="M264.105 15.632C263.705 15.632 263.321 15.596 262.953 15.524C262.585 15.46 262.261 15.348 261.981 15.188C261.701 15.02 261.481 14.796 261.321 14.516C261.161 14.228 261.081 13.872 261.081 13.448C261.081 13.048 261.129 12.728 261.225 12.488C261.329 12.248 261.473 12.044 261.657 11.876C261.841 11.708 262.061 11.548 262.317 11.396C262.061 11.252 261.849 11.1 261.681 10.94C261.521 10.78 261.401 10.588 261.321 10.364C261.249 10.132 261.213 9.852 261.213 9.524C261.213 9.036 261.333 8.64 261.573 8.336C261.821 8.032 262.161 7.808 262.593 7.664C263.033 7.52 263.537 7.448 264.105 7.448C264.673 7.448 265.177 7.516 265.617 7.652C266.065 7.788 266.413 8.012 266.661 8.324C266.917 8.628 267.045 9.032 267.045 9.536C267.045 9.872 267.005 10.156 266.925 10.388C266.853 10.612 266.733 10.804 266.565 10.964C266.397 11.116 266.173 11.264 265.893 11.408C266.173 11.536 266.405 11.684 266.589 11.852C266.781 12.012 266.925 12.212 267.021 12.452C267.117 12.692 267.165 13 267.165 13.376C267.165 13.808 267.085 14.172 266.925 14.468C266.765 14.756 266.541 14.988 266.253 15.164C265.973 15.332 265.649 15.452 265.281 15.524C264.913 15.596 264.521 15.632 264.105 15.632ZM264.105 14.324C264.385 14.324 264.629 14.292 264.837 14.228C265.053 14.156 265.217 14.04 265.329 13.88C265.449 13.712 265.509 13.484 265.509 13.196C265.509 12.972 265.465 12.788 265.377 12.644C265.297 12.492 265.181 12.368 265.029 12.272C264.885 12.176 264.725 12.1 264.549 12.044H263.649C263.369 12.132 263.145 12.272 262.977 12.464C262.817 12.648 262.737 12.904 262.737 13.232C262.737 13.496 262.793 13.708 262.905 13.868C263.025 14.028 263.189 14.144 263.397 14.216C263.605 14.288 263.841 14.324 264.105 14.324ZM263.649 10.832H264.549C264.813 10.728 265.021 10.592 265.173 10.424C265.325 10.256 265.401 10.036 265.401 9.764C265.401 9.404 265.289 9.144 265.065 8.984C264.849 8.824 264.533 8.744 264.117 8.744C263.709 8.744 263.397 8.824 263.181 8.984C262.965 9.144 262.857 9.4 262.857 9.752C262.857 10.032 262.925 10.256 263.061 10.424C263.197 10.592 263.393 10.728 263.649 10.832ZM268.085 15.5V13.724H269.753V15.5H268.085ZM271.075 15.5V14.204L272.887 12.344C273.231 11.992 273.527 11.684 273.775 11.42C274.023 11.148 274.211 10.892 274.339 10.652C274.475 10.412 274.543 10.156 274.543 9.884C274.543 9.484 274.431 9.216 274.207 9.08C273.983 8.936 273.623 8.864 273.127 8.864C272.927 8.864 272.707 8.876 272.467 8.9C272.227 8.924 271.995 8.952 271.771 8.984C271.555 9.016 271.367 9.048 271.207 9.08L271.123 7.808C271.299 7.76 271.515 7.708 271.771 7.652C272.035 7.596 272.319 7.548 272.623 7.508C272.935 7.46 273.239 7.436 273.535 7.436C274.399 7.436 275.059 7.62 275.515 7.988C275.971 8.348 276.199 8.908 276.199 9.668C276.199 10.084 276.139 10.452 276.019 10.772C275.907 11.092 275.727 11.4 275.479 11.696C275.239 11.984 274.919 12.3 274.519 12.644L272.935 14.156H276.307V15.5H271.075ZM278.859 15.956L277.347 15.56L280.827 6.944L282.339 7.34L278.859 15.956ZM286.033 15.5V9.356L284.161 10.436L283.609 9.248L286.237 7.58H287.665V15.5H286.033ZM292.641 15.632C292.129 15.632 291.685 15.564 291.309 15.428C290.933 15.284 290.621 15.056 290.373 14.744C290.133 14.424 289.949 14.008 289.821 13.496C289.701 12.984 289.641 12.356 289.641 11.612C289.641 10.844 289.701 10.192 289.821 9.656C289.949 9.12 290.137 8.692 290.385 8.372C290.633 8.044 290.941 7.808 291.309 7.664C291.685 7.52 292.125 7.448 292.629 7.448C293.149 7.448 293.597 7.52 293.973 7.664C294.349 7.808 294.657 8.044 294.897 8.372C295.145 8.692 295.325 9.12 295.437 9.656C295.557 10.184 295.617 10.836 295.617 11.612C295.617 12.596 295.509 13.384 295.293 13.976C295.085 14.56 294.761 14.984 294.321 15.248C293.881 15.504 293.321 15.632 292.641 15.632ZM292.641 14.24C292.865 14.24 293.057 14.204 293.217 14.132C293.385 14.052 293.525 13.916 293.637 13.724C293.749 13.532 293.829 13.264 293.877 12.92C293.933 12.576 293.961 12.14 293.961 11.612C293.961 11.052 293.933 10.592 293.877 10.232C293.829 9.872 293.753 9.592 293.649 9.392C293.545 9.184 293.409 9.04 293.241 8.96C293.073 8.872 292.873 8.828 292.641 8.828C292.409 8.828 292.209 8.872 292.041 8.96C291.873 9.04 291.733 9.18 291.621 9.38C291.517 9.58 291.437 9.864 291.381 10.232C291.325 10.592 291.297 11.056 291.297 11.624C291.297 12.152 291.325 12.588 291.381 12.932C291.445 13.276 291.533 13.544 291.645 13.736C291.757 13.92 291.893 14.052 292.053 14.132C292.221 14.204 292.417 14.24 292.641 14.24ZM299.342 15.5V7.304H300.998V15.5H299.342ZM302.518 15.5V7.304H305.182L306.838 12.776L308.458 7.304H311.158V15.5H309.502V9.428H309.334L307.618 15.284H306.058L304.342 9.428H304.174V15.5H302.518ZM312.666 15.5V7.304H315.798C316.438 7.304 316.974 7.396 317.406 7.58C317.846 7.756 318.198 8.016 318.462 8.36C318.726 8.704 318.914 9.12 319.026 9.608C319.146 10.096 319.206 10.652 319.206 11.276C319.206 11.908 319.15 12.48 319.038 12.992C318.934 13.504 318.754 13.948 318.498 14.324C318.242 14.7 317.898 14.992 317.466 15.2C317.034 15.4 316.494 15.5 315.846 15.5H312.666ZM314.322 14.108H315.75C316.126 14.108 316.43 14.036 316.662 13.892C316.894 13.748 317.07 13.548 317.19 13.292C317.318 13.028 317.402 12.728 317.442 12.392C317.49 12.048 317.514 11.676 317.514 11.276C317.514 10.892 317.49 10.544 317.442 10.232C317.394 9.912 317.306 9.64 317.178 9.416C317.058 9.184 316.882 9.008 316.65 8.888C316.426 8.76 316.126 8.696 315.75 8.696H314.322V14.108ZM322.751 15.632C322.551 15.632 322.307 15.624 322.019 15.608C321.731 15.592 321.435 15.568 321.131 15.536C320.835 15.504 320.571 15.476 320.339 15.452V7.016H321.947V9.668C322.067 9.62 322.215 9.572 322.391 9.524C322.567 9.476 322.751 9.436 322.943 9.404C323.143 9.364 323.327 9.344 323.495 9.344C324.055 9.344 324.499 9.46 324.827 9.692C325.163 9.916 325.403 10.252 325.547 10.7C325.691 11.148 325.763 11.712 325.763 12.392C325.763 13.192 325.671 13.832 325.487 14.312C325.311 14.784 325.003 15.124 324.563 15.332C324.123 15.532 323.519 15.632 322.751 15.632ZM322.763 14.288C323.155 14.288 323.447 14.22 323.639 14.084C323.831 13.94 323.959 13.728 324.023 13.448C324.095 13.168 324.131 12.824 324.131 12.416C324.131 12 324.099 11.668 324.035 11.42C323.971 11.164 323.863 10.98 323.711 10.868C323.567 10.748 323.363 10.688 323.099 10.688C322.971 10.688 322.835 10.704 322.691 10.736C322.547 10.76 322.407 10.792 322.271 10.832C322.143 10.864 322.035 10.896 321.947 10.928V14.24C322.067 14.248 322.207 14.26 322.367 14.276C322.527 14.284 322.659 14.288 322.763 14.288Z" fill="#056700"/>
</svg>
