<svg width="687" height="2128" viewBox="0 0 687 2128" fill="none" xmlns="http://www.w3.org/2000/svg">
<path opacity="0.25" d="M686.825 541.133C686.825 712.992 606.77 870.977 467.266 974.602C421.144 1008.85 356.083 998.751 322.237 952.12C309.085 933.942 302.07 912.514 302.07 890.033C302.07 856.75 317.853 825.136 344.421 805.376C430.175 741.709 479.278 645.285 479.278 541.045C479.278 358.384 332.409 209.797 151.781 209.797C-28.8469 209.797 -175.717 358.384 -175.717 541.045C-175.717 665.571 -110.042 782.808 -4.29558 847.002L414.656 1101.06C582.481 1202.93 686.649 1389.01 686.649 1586.87C686.649 1885.27 446.66 2128 151.693 2128C-143.274 2128 -383 1885.36 -383 1586.95C-383 1413.87 -302.77 1255.79 -163.002 1153.13C-116.706 1119.15 -51.7323 1129.6 -18.1495 1176.41C-5.17238 1194.5 1.66688 1215.75 1.66688 1237.97C1.66688 1271.51 -14.3792 1303.3 -41.1226 1322.97C-126.526 1385.68 -175.541 1481.92 -175.541 1586.95C-175.541 1769.62 -28.6716 1918.2 151.956 1918.2C332.584 1918.2 479.454 1769.62 479.454 1586.95C479.454 1462.43 413.779 1345.19 308.033 1281L-110.655 1027.12C-278.657 925.16 -382.912 738.986 -382.912 541.133C-382.912 242.728 -142.923 2.86289e-06 152.044 6.38033e-06C447.011 9.89778e-06 687 242.728 687 541.133L686.825 541.133Z" fill="url(#paint0_linear_774_1551)"/>
<defs>
<linearGradient id="paint0_linear_774_1551" x1="-383" y1="1923.38" x2="1159.28" y2="963.255" gradientUnits="userSpaceOnUse">
<stop stop-color="#2A313C"/>
<stop offset="1" stop-color="#424952" stop-opacity="0"/>
</linearGradient>
</defs>
</svg>
